<svg id="Capa_1" enable-background="new 0 0 512.578 512.578" height="512" viewBox="0 0 512.578 512.578" width="512" xmlns="http://www.w3.org/2000/svg" xmlns:xlink="http://www.w3.org/1999/xlink"><linearGradient id="lg1"><stop offset=".00000036422" stop-color="#a8abff"/><stop offset="1" stop-color="#fac8ff"/></linearGradient><linearGradient id="SVGID_1_" gradientUnits="userSpaceOnUse" x1="226" x2="226" xlink:href="#lg1" y1="7.539" y2="285.539"/><linearGradient id="SVGID_2_" gradientUnits="userSpaceOnUse" x1="277" x2="277" xlink:href="#lg1" y1="96.539" y2="285.539"/><linearGradient id="SVGID_3_" gradientUnits="userSpaceOnUse" x1="73.132" x2="73.132" xlink:href="#lg1" y1="189.289" y2="349.42"/><linearGradient id="SVGID_4_" gradientUnits="userSpaceOnUse" x1="439" x2="439" xlink:href="#lg1" y1="189.289" y2="349.421"/><linearGradient id="SVGID_5_" gradientUnits="userSpaceOnUse" x1="256" x2="256" y1="264.039" y2="512.539"><stop offset=".00000083866" stop-color="#96d1f3"/><stop offset="1" stop-color="#ccfff4"/></linearGradient><linearGradient id="SVGID_6_" gradientUnits="userSpaceOnUse" x1="256.289" x2="256.289" y1=".039" y2="512.539"><stop offset=".00000011981" stop-color="#174fa3"/><stop offset="1" stop-color="#b044af"/></linearGradient><g><g><path d="m176 7.539h100v278h-100z" fill="url(#SVGID_1_)"/><path d="m227 96.539h100v189h-100z" fill="url(#SVGID_2_)"/><path d="m69.893 349.42 69.617-35.177-63.138-124.954-69.618 35.177z" fill="url(#SVGID_3_)"/><path d="m442.239 349.42-69.617-35.177 63.139-124.954 69.617 35.177z" fill="url(#SVGID_4_)"/><path d="m256 264.039c-137.243 0-248.5 111.257-248.5 248.5h497c0-137.243-111.257-248.5-248.5-248.5z" fill="url(#SVGID_5_)"/><g fill="#fff"><path d="m169 340.539 14-27 50 4 5 36-24 11 17 36-24 4z"/><path d="m491.18 432.079-37.18 13.46-9 36-54 2-32-51-45-5-43-55 28-44 113.99-8.64c35.61 29.05 63.01 67.78 78.19 112.18z"/><path d="m172 436.539-14 36-39-12-25 26v.12l-85.12-.45c6.15-58.42 32.54-110.8 72.03-150.01l40.09 18.34v28l22 8z"/></g></g><path d="m203 30.039h15v15h-15zm30 15h15v-15h-15zm-30 30h15v-15h-15zm30 0h15v-15h-15zm36 44h-15v15h15zm30 0h-15v15h15zm-30 30h-15v15h15zm30 0h-15v15h15zm-30 29h-15v15h15zm30 0h-15v15h15zm-30 29h-15v15h15zm30 0h-15v15h15zm-232.177 14.509-23.206 11.726 6.766 13.388 23.206-11.726zm-2.911 51.889 23.206-11.726-6.766-13.388-23.206 11.726zm13.079 25.883 23.206-11.726-6.766-13.388-23.206 11.726zm374.593 48.04c39.097 46.139 60.416 104.017 60.416 165.179h-15c0-24.611-3.717-48.369-10.604-70.752l-26.088 9.445-9.398 37.593-63.96 2.369-32.377-51.601-44.537-4.949-48.208-61.661 32.861-51.639 97.674-7.403c-92.248-63.538-215.612-54.743-298.126 20.107l34.263 15.675v27.563l19.476 7.082 32.384 51.368-17.897 46.023-41.255-12.694-24.03 24.991-81.437-.431c-.487 6.242-.74 12.549-.74 18.914h-15.001c0-61.222 21.361-119.154 60.531-165.316l-59.425-126.158 83.041-41.962 50.337 107.989c10.959-5.926 22.323-11.025 34.016-15.268v-271.785h115v89h51v179.717c14.94 4.793 29.391 10.957 43.197 18.437l51.852-108.05 83.028 41.956zm-368.898-2.101c-34.456 35.686-58.016 81.945-65.29 133.375l73.427.388 25.97-27.009 36.745 11.306 10.103-25.977-25.616-40.632-24.524-8.918v-28.437zm38.772-50.606-44.366-95.178-56.199 28.398 50.536 107.285c15.15-15.748 31.829-29.22 50.029-40.505zm98.042-205.614h49v-74h-85v251.874c11.741-3.448 23.764-6.058 36-7.794zm100 15h-85v153.402c28.89-2.387 57.504.014 85 7zm117.52 227.481c1.257 1.257 2.491 2.532 3.718 3.81l51.924-107.489-56.212-28.405-45.744 95.319c16.605 10.313 32.148 22.598 46.314 36.765zm-26.653-3.901-107.055 8.115-23.139 36.361 37.792 48.339 45.463 5.051 31.623 50.399 44.04-1.631 8.602-34.407 33.836-12.249c-14.813-39.198-39.56-73.553-71.162-99.978zm59.83-94.346-23.206-11.726-6.766 13.388 23.206 11.726zm-13.53 26.776-23.205-11.726-6.766 13.388 23.205 11.726zm-36.284 14.158-6.766 13.388 23.206 11.726 6.766-13.388zm-29.454-127.955v15h35.784v-35.785h-15v9.579l-29.323-29.324-10.607 10.606 29.922 29.922h-10.776zm-272.858 0h-10.776l29.922-29.922-10.607-10.606-29.323 29.324v-9.579h-15v35.785h35.784zm128.125 211.781-22.175 10.164 17.996 38.11-38.847 6.475-42.747-71.995 18.21-35.12 60.967 4.877zm-16.392-8.988-3.404-24.51-39.033-3.123-9.79 18.88 33.253 56.005 9.153-1.525-16.004-33.89z" fill="url(#SVGID_6_)"/></g></svg>