<svg height="480pt" viewBox="0 -16 480 480" width="480pt" xmlns="http://www.w3.org/2000/svg"><path d="m23.960938 200h432c8.835937 0 16 7.164062 16 16v208c0 8.835938-7.164063 16-16 16h-432c-8.835938 0-16-7.164062-16-16v-208c0-8.835938 7.164062-16 16-16zm0 0" fill="#cc995e"/><path d="m327.960938 320c0 48.601562-39.398438 88-88 88-48.601563 0-88-39.398438-88-88s39.398437-88 88-88c48.601562 0 88 39.398438 88 88zm0 0" fill="#b38652"/><path d="m47.960938 168c-8.835938 0-16 7.164062-16 16s7.164062 16 16 16h96v-32zm0 0" fill="#b34840"/><path d="m47.960938 136c-8.835938 0-16 7.164062-16 16s7.164062 16 16 16h96v-32zm0 0" fill="#cc5249"/><path d="m47.960938 104c-8.835938 0-16 7.164062-16 16s7.164062 16 16 16h96v-32zm0 0" fill="#ff675b"/><path d="m343.960938 8h112c8.835937 0 16 7.164062 16 16v80c0 8.835938-7.164063 16-16 16h-112c-8.835938 0-16-7.164062-16-16v-80c0-8.835938 7.164062-16 16-16zm0 0" fill="#efefef"/><path d="m343.960938 152h112c8.835937 0 16 7.164062 16 16v16c0 8.835938-7.164063 16-16 16h-112c-8.835938 0-16-7.164062-16-16v-16c0-8.835938 7.164062-16 16-16zm0 0" fill="#efefef"/><path d="m383.960938 56h32c8.835937 0 16 7.164062 16 16v32c0 8.835938-7.164063 16-16 16h-32c-8.835938 0-16-7.164062-16-16v-32c0-8.835938 7.164062-16 16-16zm0 0" fill="#d6d6d6"/><path d="m456 191.976562h-432c-13.25.015626-23.984375 10.75-24 24v208.023438c.015625 13.25 10.75 23.984375 24 24h432c13.25-.015625 23.984375-10.75 24-24v-208.023438c-.015625-13.25-10.75-23.984374-24-24zm0 240.023438h-432c-4.417969-.003906-7.996094-3.582031-8-8v-96.023438l111.960938.023438v-16l-111.960938-.023438v-96c.003906-4.417968 3.582031-7.996093 8-8h432c4.417969.003907 7.996094 3.582032 8 8v96l-112.039062.023438v16l112.039062-.023438v96.023438c-.003906 4.417969-3.582031 7.996094-8 8zm0 0"/><path d="m192 151.976562c0-1.628906.5625-39.84375 47.75-39.988281l.210938.011719.253906-.011719c46.035156.117188 47.746094 35.9375 47.785156 39.988281v24.023438h16v-24.023438c-.789062-21.957031-13.96875-41.566406-34.003906-50.589843 15.894531-12.75 22.007812-34.148438 15.25-53.371094-6.761719-19.222656-24.925782-32.082031-45.300782-32.074219-20.378906.007813-38.53125 12.878906-45.277343 32.109375-6.746094 19.230469-.617188 40.621094 15.289062 53.359375-20.007812 9.035156-33.164062 28.628906-33.957031 50.566406v24.023438h16zm15.960938-87.976562c-.007813-17.652344 14.28125-31.980469 31.933593-32.015625 17.65625-.035156 32.003907 14.230469 32.066407 31.886719.0625 17.652344-14.183594 32.023437-31.835938 32.113281l-.125-.007813-.175781.007813c-17.609375-.085937-31.839844-14.375-31.863281-31.984375zm0 0"/><path d="m239.960938 224c-53.019532 0-96 42.980469-96 96s42.980468 96 96 96c53.019531 0 96-42.980469 96-96-.058594-52.996094-43.003907-95.941406-96-96zm0 176c-44.183594 0-80-35.816406-80-80s35.816406-80 80-80c44.183593 0 80 35.816406 80 80-.050782 44.160156-35.839844 79.949219-80 80zm0 0"/><path d="m47.960938 176h104v-80h-104c-9.484376-.042969-18.097657 5.53125-21.945313 14.199219s-2.203125 18.792969 4.1875 25.800781c-6.390625 7.007812-8.035156 17.132812-4.1875 25.800781s12.460937 14.242188 21.945313 14.199219zm88-16h-88c-4.417969 0-8-3.582031-8-8s3.582031-8 8-8h88zm-88-48h88v16h-88c-4.417969 0-8-3.582031-8-8s3.582031-8 8-8zm0 0"/><path d="m335.960938 168c.003906-4.417969 3.582031-7.996094 8-8h112c4.417968.003906 7.996093 3.582031 8 8v8h16v-8c-.015626-13.25-10.75-23.984375-24-24h-48v-16h48c13.25-.015625 23.984374-10.75 24-24v-80c-.015626-13.25-10.75-23.984375-24-24h-112c-13.25.015625-23.984376 10.75-24 24v80c.015624 13.25 10.75 23.984375 24 24h48v16h-48c-13.25.015625-23.984376 10.75-24 24v8h16zm0-64v-80c.003906-4.417969 3.582031-7.996094 8-8h112c4.417968.003906 7.996093 3.582031 8 8v80c-.003907 4.417969-3.582032 7.996094-8 8h-17.472657c.945313-2.5625 1.445313-5.269531 1.472657-8v-32c-.015626-13.25-10.75-23.984375-24-24h-32c-13.25.015625-23.984376 10.75-24 24v32c.027343 2.730469.527343 5.4375 1.476562 8h-17.476562c-4.417969-.003906-7.996094-3.582031-8-8zm48 8c-4.417969-.003906-7.996094-3.582031-8-8v-32c.003906-4.417969 3.582031-7.996094 8-8h32c4.417968.003906 7.996093 3.582031 8 8v32c-.003907 4.417969-3.582032 7.996094-8 8h-8v-24h-16v24zm0 0"/><path d="m279.960938 296v-8c-.011719-8.832031-7.167969-15.988281-16-16h-16v-16h-16v16h-16c-8.832032.011719-15.988282 7.167969-16 16v24c.011718 8.832031 7.167968 15.988281 16 16h16v24h-16v-8h-16v8c.011718 8.832031 7.167968 15.988281 16 16h16v16h16v-16h16c8.832031-.011719 15.988281-7.167969 16-16v-24c-.011719-8.832031-7.167969-15.988281-16-16h-16v-24h16v8zm-16 32v24h-16v-24zm-32-16h-16v-24h16zm0 0"/></svg>