<?xml version="1.0" encoding="iso-8859-1"?>
<!-- Generator: Adobe Illustrator 19.0.0, SVG Export Plug-In . SVG Version: 6.00 Build 0)  -->
<svg version="1.1" id="Capa_1" xmlns="http://www.w3.org/2000/svg" xmlns:xlink="http://www.w3.org/1999/xlink" x="0px" y="0px"
	 viewBox="0 0 512 512" style="enable-background:new 0 0 512 512;" xml:space="preserve">
<linearGradient id="SVGID_1_" gradientUnits="userSpaceOnUse" x1="355.6989" y1="369.2632" x2="195.8989" y2="529.0612" gradientTransform="matrix(1.0039 0 0 -1.0039 0.1922 516.5609)">
	<stop  offset="0" style="stop-color:#FFE7A5"/>
	<stop  offset="0.966" style="stop-color:#FFBF5C"/>
</linearGradient>
<circle style="fill:url(#SVGID_1_);" cx="323.203" cy="111.767" r="111.767"/>
<linearGradient id="SVGID_2_" gradientUnits="userSpaceOnUse" x1="289.4687" y1="435.493" x2="441.3687" y2="283.593" gradientTransform="matrix(1.0039 0 0 -1.0039 0.1922 516.5609)">
	<stop  offset="0" style="stop-color:#FFE7A5"/>
	<stop  offset="0.966" style="stop-color:#FFBF5C"/>
</linearGradient>
<circle style="fill:url(#SVGID_2_);" cx="323.203" cy="111.767" r="106.245"/>
<linearGradient id="SVGID_3_" gradientUnits="userSpaceOnUse" x1="346.765" y1="378.1992" x2="229.015" y2="495.9373" gradientTransform="matrix(1.0039 0 0 -1.0039 0.1922 516.5609)">
	<stop  offset="0" style="stop-color:#FFE7A5"/>
	<stop  offset="0.966" style="stop-color:#FFBF5C"/>
</linearGradient>
<circle style="fill:url(#SVGID_3_);" cx="323.203" cy="111.767" r="82.352"/>
<g>
	<path style="fill:#DB9E36;" d="M303.82,155.358c-2.077-2.099-2.003-4.253,0.226-6.458c2.314-2.29,4.362-2.534,6.143-0.734
		s3.897,2.504,6.352,2.112c2.454-0.392,4.752-1.647,6.895-3.768c5.143-5.089,5.043-10.332-0.3-15.732l-1.208-1.222
		c-2.671-2.7-5.34-4.067-8.003-4.103c-2.664-0.035-5.217,1.155-7.661,3.572l-9.321,9.223c-1.929,1.907-3.759,1.987-5.49,0.236
		c-0.422-0.426-0.814-1.051-1.177-1.878l-16.054-18.752c-1.355-1.626-1.583-2.886-0.683-3.777l19.094-18.891
		c0.685-0.678,1.508-0.898,2.466-0.659c0.958,0.241,1.841,0.767,2.645,1.581c0.806,0.814,1.323,1.703,1.552,2.661
		c0.23,0.962,0,1.781-0.685,2.458l-14.851,14.694l11.441,13.361l5.721-5.661c4.414-4.367,9-6.761,13.755-7.184
		c4.756-0.422,9.445,1.703,14.067,6.374l1.209,1.222c4.793,4.844,7.004,9.715,6.637,14.616s-2.716,9.492-7.045,13.775
		c-4.457,4.41-9.073,6.796-13.851,7.153C310.915,159.937,306.958,158.53,303.82,155.358z"/>
	<path style="fill:#DB9E36;" d="M335.224,118.436l-18.509-18.707c-4.876-4.928-7.152-9.842-6.828-14.745
		c0.324-4.9,2.672-9.514,7.045-13.839c4.371-4.325,9.02-6.635,13.945-6.928c4.926-0.293,9.827,2.025,14.703,6.953l18.509,18.707
		c4.876,4.929,7.142,9.854,6.796,14.776c-0.346,4.922-2.706,9.545-7.077,13.871c-4.372,4.325-9.01,6.625-13.913,6.896
		C344.99,125.694,340.1,123.365,335.224,118.436z M342.037,111.694c5.47,5.529,10.734,5.792,15.792,0.788
		c2.443-2.417,3.65-4.967,3.622-7.655c-0.028-2.685-1.42-5.421-4.176-8.208l-18.509-18.707c-2.756-2.786-5.477-4.206-8.163-4.265
		c-2.685-0.056-5.25,1.122-7.692,3.54c-5.058,5.004-4.851,10.27,0.618,15.799L342.037,111.694z"/>
</g>
<linearGradient id="SVGID_4_" gradientUnits="userSpaceOnUse" x1="90.8199" y1="96.9309" x2="130.4999" y2="120.0809" gradientTransform="matrix(1.0039 0 0 -1.0039 0.1922 516.5609)">
	<stop  offset="0" style="stop-color:#FF7BAC"/>
	<stop  offset="1" style="stop-color:#E24786"/>
</linearGradient>
<path style="fill:url(#SVGID_4_);" d="M196.056,388.297L50.123,314.313c0,81.203,32.197,124.692,41.762,136.92
	c0.439,0.665,50.226,57.356,50.226,57.356c4.549,4.549,11.924,4.549,16.471,0l29.721-29.721
	C195.641,471.53,196.056,388.297,196.056,388.297z"/>
<linearGradient id="SVGID_5_" gradientUnits="userSpaceOnUse" x1="137.4916" y1="115.574" x2="46.4816" y2="153.274" gradientTransform="matrix(1.0039 0 0 -1.0039 0.1922 516.5609)">
	<stop  offset="0" style="stop-color:#FF7BAC"/>
	<stop  offset="1" style="stop-color:#E24786"/>
</linearGradient>
<path style="fill:url(#SVGID_5_);" d="M320.183,508.589l-29.721-29.721c-7.338-7.338-2.14-19.883,8.236-19.883h59.443
	c10.377,0,15.573,12.546,8.236,19.883l-29.721,29.721C332.106,513.137,324.732,513.137,320.183,508.589z"/>
<linearGradient id="SVGID_6_" gradientUnits="userSpaceOnUse" x1="137.5643" y1="353.5309" x2="150.0143" y2="327.4409" gradientTransform="matrix(1.0039 0 0 -1.0039 0.1922 516.5609)">
	<stop  offset="0" style="stop-color:#FF7BAC"/>
	<stop  offset="1" style="stop-color:#E24786"/>
</linearGradient>
<path style="fill:url(#SVGID_6_);" d="M155.459,204.911h-14.275c-14.756,0-25.078-14.59-20.167-28.504l6.423-18.2
	c6.475-18.347,32.097-19.218,39.804-1.353l7.851,18.2C181.187,189.172,170.834,204.911,155.459,204.911z"/>
<linearGradient id="SVGID_7_" gradientUnits="userSpaceOnUse" x1="489.9136" y1="336.0458" x2="435.5836" y2="318.6058" gradientTransform="matrix(1.0039 0 0 -1.0039 0.1922 516.5609)">
	<stop  offset="0" style="stop-color:#FF7BAC"/>
	<stop  offset="1" style="stop-color:#E24786"/>
</linearGradient>
<path style="fill:url(#SVGID_7_);" d="M458.396,219.45c-3.928,0-7.921-0.67-11.822-2.081c-3.126-1.131-4.743-4.584-3.612-7.709
	c1.131-3.127,4.585-4.74,7.709-3.612c5.728,2.073,11.918,1.791,17.433-0.792c5.516-2.583,9.693-7.161,11.765-12.888
	c1.549-4.28,1.338-8.906-0.59-13.026c-1.931-4.12-5.351-7.243-9.63-8.79c-3.123-1.131-6.496-0.977-9.5,0.431
	c-3.005,1.407-5.283,3.903-6.412,7.024c-1.64,4.529,0.713,9.549,5.241,11.189c1.452,0.526,3.023,0.453,4.423-0.202
	c1.399-0.657,2.46-1.818,2.986-3.271c1.131-3.125,4.588-4.743,7.708-3.611c3.125,1.13,4.743,4.582,3.611,7.708
	c-1.619,4.476-4.886,8.054-9.198,10.075c-4.312,2.019-9.154,2.24-13.627,0.618c-10.772-3.898-16.363-15.834-12.466-26.605
	c2.225-6.146,6.708-11.057,12.625-13.828c5.918-2.773,12.562-3.076,18.706-0.849c7.303,2.64,13.139,7.969,16.434,15.003
	c3.295,7.033,3.653,14.927,1.01,22.231C486.064,210.627,472.653,219.45,458.396,219.45z"/>
<linearGradient id="SVGID_8_" gradientUnits="userSpaceOnUse" x1="303.2929" y1="158.5955" x2="519.4128" y2="-191.5644" gradientTransform="matrix(1.0039 0 0 -1.0039 0.1922 516.5609)">
	<stop  offset="0" style="stop-color:#FF7BAC"/>
	<stop  offset="1" style="stop-color:#E24786"/>
</linearGradient>
<path style="fill:url(#SVGID_8_);" d="M502.337,314.313c0-103.943-101.231-171.653-226.107-171.653S50.123,210.371,50.123,314.313
	c0,86.119,106.849,164.554,106.849,164.554l29.721,29.721c4.549,4.549,11.924,4.549,16.471,0l25.963-25.963
	c15.194,2.198,30.948,3.34,47.101,3.34c25.215,0,49.465-2.764,72.114-8.026c0.256,0.313,0.5,0.631,0.797,0.929l29.721,29.721
	c4.549,4.549,11.923,4.549,16.471,0l29.721-29.721C432.393,471.53,502.337,379.221,502.337,314.313z"/>
<linearGradient id="SVGID_9_" gradientUnits="userSpaceOnUse" x1="189.0098" y1="93.5736" x2="120.4398" y2="211.2536" gradientTransform="matrix(1.0039 0 0 -1.0039 0.1922 516.5609)">
	<stop  offset="0" style="stop-color:#FF7BAC;stop-opacity:0"/>
	<stop  offset="1" style="stop-color:#E24786"/>
</linearGradient>
<path style="fill:url(#SVGID_9_);" d="M335.967,480.503L145.963,290.497c-9.256-10.538-22.821-17.198-37.948-17.198H60.168
	c-1.509,0-3,0.078-4.475,0.208c-3.639,12.861-5.57,26.487-5.57,40.805c0,34.819,5.925,62.683,13.442,84.142L166.14,501.029
	l6.497-6.497l14.055,14.055c4.549,4.549,11.924,4.549,16.471,0l25.963-25.963c15.194,2.198,30.948,3.34,47.101,3.34
	C296.915,485.965,316.933,484.076,335.967,480.503z"/>
<linearGradient id="SVGID_10_" gradientUnits="userSpaceOnUse" x1="282.5502" y1="44.5497" x2="240.6402" y2="25.9197" gradientTransform="matrix(1.0039 0 0 -1.0039 0.1922 516.5609)">
	<stop  offset="0" style="stop-color:#FF7BAC;stop-opacity:0"/>
	<stop  offset="1" style="stop-color:#E24786"/>
</linearGradient>
<path style="fill:url(#SVGID_10_);" d="M348.153,477.98v-33.505h-80.875l-38.149,38.149c15.194,2.198,30.948,3.34,47.101,3.34
	C301.375,485.965,325.559,483.215,348.153,477.98z"/>
<g>
	<circle style="fill:#503837;" cx="149.835" cy="251.261" r="14.105"/>
	<circle style="fill:#503837;" cx="88.215" cy="251.262" r="10.898"/>
</g>
<linearGradient id="SVGID_11_" gradientUnits="userSpaceOnUse" x1="90.2171" y1="198.3619" x2="-0.7929" y2="111.3019" gradientTransform="matrix(1.0039 0 0 -1.0039 0.1922 516.5609)">
	<stop  offset="0" style="stop-color:#FF7BAC"/>
	<stop  offset="1" style="stop-color:#E24786"/>
</linearGradient>
<path style="fill:url(#SVGID_11_);" d="M108.014,374.308H60.167c-27.893,0-50.504-22.611-50.504-50.504l0,0
	c0-27.893,22.611-50.504,50.504-50.504h47.846c27.893,0,50.504,22.611,50.504,50.504l0,0
	C158.518,351.697,135.907,374.308,108.014,374.308z"/>
<g>
	<ellipse style="fill:#503837;" cx="42.657" cy="323.805" rx="18.141" ry="24.443"/>
	<ellipse style="fill:#503837;" cx="106.526" cy="323.805" rx="18.141" ry="24.443"/>
</g>
<linearGradient id="SVGID_12_" gradientUnits="userSpaceOnUse" x1="131.0928" y1="271.3985" x2="40.0828" y2="194.6285" gradientTransform="matrix(1.0039 0 0 -1.0039 0.1922 516.5609)">
	<stop  offset="0" style="stop-color:#FF7BAC"/>
	<stop  offset="1" style="stop-color:#E24786"/>
</linearGradient>
<path style="fill:url(#SVGID_12_);" d="M228.105,196.699H213.83c-14.756,0-25.078-14.59-20.167-28.504l6.423-18.2
	c6.475-18.347,32.097-19.218,39.804-1.353l7.851,18.2C253.832,180.96,243.48,196.699,228.105,196.699z"/>
<linearGradient id="SVGID_13_" gradientUnits="userSpaceOnUse" x1="190.9315" y1="352.4537" x2="1.7316" y2="381.2337" gradientTransform="matrix(1.0039 0 0 -1.0039 0.1922 516.5609)">
	<stop  offset="0" style="stop-color:#FF7BAC;stop-opacity:0"/>
	<stop  offset="1" style="stop-color:#E24786"/>
</linearGradient>
<path style="fill:url(#SVGID_13_);" d="M220.148,185.548h-6.914c-7.147,0-12.147-9.253-9.768-18.079l3.111-11.543
	c3.136-11.636,15.548-12.189,19.28-0.858l3.803,11.543C232.61,175.566,227.596,185.548,220.148,185.548z"/>
<linearGradient id="SVGID_14_" gradientUnits="userSpaceOnUse" x1="268.2034" y1="310.3109" x2="244.0534" y2="370.9209" gradientTransform="matrix(1.0039 0 0 -1.0039 0.1922 516.5609)">
	<stop  offset="0" style="stop-color:#FF7BAC;stop-opacity:0"/>
	<stop  offset="1" style="stop-color:#E24786"/>
</linearGradient>
<path style="fill:url(#SVGID_14_);" d="M348.822,255.791l-38.147,43.82L206.467,195.418c2.272,0.827,4.756,1.279,7.359,1.279h14.281
	c15.379,0,25.733-15.74,19.638-29.856l-7.856-18.193c-0.572-1.324-1.234-2.543-2.017-3.656l0.09-0.075L348.822,255.791z"/>
<g>
</g>
<g>
</g>
<g>
</g>
<g>
</g>
<g>
</g>
<g>
</g>
<g>
</g>
<g>
</g>
<g>
</g>
<g>
</g>
<g>
</g>
<g>
</g>
<g>
</g>
<g>
</g>
<g>
</g>
</svg>
