<svg id="Flat" height="512" viewBox="0 0 512 512" width="512" xmlns="http://www.w3.org/2000/svg"><path d="m488 104v384h-272v-464h192z" fill="#e9eef2"/><g fill="#d0d2d4"><path d="m448 208h-152a8 8 0 0 1 0-16h152a8 8 0 0 1 0 16z"/><path d="m448 240h-152a8 8 0 0 1 0-16h152a8 8 0 0 1 0 16z"/><path d="m448 272h-152a8 8 0 0 1 0-16h152a8 8 0 0 1 0 16z"/><path d="m448 304h-152a8 8 0 0 1 0-16h152a8 8 0 0 1 0 16z"/><path d="m448 176h-104a8 8 0 0 1 0-16h104a8 8 0 0 1 0 16z"/><path d="m448 144h-104a8 8 0 0 1 0-16h104a8 8 0 0 1 0 16z"/><path d="m408 24 80 80h-80z"/></g><path d="m268.376 488a63.985 63.985 0 0 0 62.855-51.939c6.245-32.625 12.769-74.692 12.769-108.061 0-97.232-62.852-176.052-160.1-176h.192c-97.24-.052-160.092 78.768-160.092 176 0 33.369 6.524 75.436 12.769 108.061a63.985 63.985 0 0 0 62.855 51.939z" fill="#ad6643"/><rect fill="#ffd33a" height="64" rx="32" width="160" x="104" y="152"/><path d="m272 456h216v32h-216z" fill="#35a872"/><path d="m272 424h216v32h-216z" fill="#3dc285"/><path d="m272 392h216v32h-216z" fill="#35a872"/><path d="m272 360h216v32h-216z" fill="#3dc285"/><path d="m360 360h32v128h-32z" fill="#d0d2d4"/><path d="m264 88h-160l40 96h80z" fill="#ad6643"/><circle cx="184" cy="344" fill="#ffd33a" r="80"/><path d="m184 256a88 88 0 1 0 88 88 88.105 88.105 0 0 0 -88-88zm0 160a72 72 0 1 1 72-72 72.084 72.084 0 0 1 -72 72z" fill="#ffb632"/><path d="m208 360a24.022 24.022 0 0 1 -16 22.62v9.38a8 8 0 0 1 -16 0v-8h-8a8 8 0 0 1 0-16h16a8 8 0 0 0 0-16 24 24 0 0 1 -8-46.62v-9.38a8 8 0 0 1 16 0v8h8a8 8 0 0 1 0 16h-16a8 8 0 0 0 0 16 24.032 24.032 0 0 1 24 24z" fill="#ffb632"/></svg>